<mxfile host="65bd71144e">
    <diagram id="lVUsXlPJjy9h7qblNcRz" name="Page-1">
        <mxGraphModel dx="1743" dy="576" grid="1" gridSize="10" guides="1" tooltips="1" connect="1" arrows="1" fold="1" page="1" pageScale="1" pageWidth="850" pageHeight="1100" math="0" shadow="0">
            <root>
                <mxCell id="0"/>
                <mxCell id="1" parent="0"/>
                <mxCell id="5" value="" style="edgeStyle=none;html=1;" edge="1" parent="1" source="3" target="4">
                    <mxGeometry relative="1" as="geometry"/>
                </mxCell>
                <mxCell id="3" value="INICIO" style="ellipse;whiteSpace=wrap;html=1;fillColor=#1A3300;" vertex="1" parent="1">
                    <mxGeometry x="365" y="20" width="120" height="80" as="geometry"/>
                </mxCell>
                <mxCell id="7" value="" style="edgeStyle=none;html=1;" edge="1" parent="1" source="4" target="6">
                    <mxGeometry relative="1" as="geometry"/>
                </mxCell>
                <mxCell id="4" value="a" style="shape=parallelogram;perimeter=parallelogramPerimeter;whiteSpace=wrap;html=1;fixedSize=1;fillColor=#331A00;" vertex="1" parent="1">
                    <mxGeometry x="365" y="130" width="120" height="60" as="geometry"/>
                </mxCell>
                <mxCell id="6" value="a == 1" style="rhombus;whiteSpace=wrap;html=1;fillColor=#330000;" vertex="1" parent="1">
                    <mxGeometry x="385" y="240" width="80" height="80" as="geometry"/>
                </mxCell>
                <mxCell id="9" value="" style="endArrow=none;html=1;exitX=1;exitY=0.5;exitDx=0;exitDy=0;" edge="1" parent="1" source="6">
                    <mxGeometry width="50" height="50" relative="1" as="geometry">
                        <mxPoint x="485" y="290" as="sourcePoint"/>
                        <mxPoint x="650" y="280" as="targetPoint"/>
                    </mxGeometry>
                </mxCell>
                <mxCell id="10" value="" style="endArrow=none;html=1;exitX=0.5;exitY=0;exitDx=0;exitDy=0;" edge="1" parent="1" source="46">
                    <mxGeometry width="50" height="50" relative="1" as="geometry">
                        <mxPoint x="649.5" y="360" as="sourcePoint"/>
                        <mxPoint x="649.5" y="280" as="targetPoint"/>
                    </mxGeometry>
                </mxCell>
                <mxCell id="12" value="" style="endArrow=none;html=1;entryX=0;entryY=0.5;entryDx=0;entryDy=0;" edge="1" parent="1" target="6">
                    <mxGeometry width="50" height="50" relative="1" as="geometry">
                        <mxPoint x="320" y="280" as="sourcePoint"/>
                        <mxPoint x="340" y="290" as="targetPoint"/>
                    </mxGeometry>
                </mxCell>
                <mxCell id="13" value="" style="endArrow=none;html=1;exitX=0.5;exitY=0;exitDx=0;exitDy=0;" edge="1" parent="1" source="14">
                    <mxGeometry width="50" height="50" relative="1" as="geometry">
                        <mxPoint x="320" y="360" as="sourcePoint"/>
                        <mxPoint x="320" y="280" as="targetPoint"/>
                    </mxGeometry>
                </mxCell>
                <mxCell id="14" value="a == 2" style="rhombus;whiteSpace=wrap;html=1;fillColor=#336600;" vertex="1" parent="1">
                    <mxGeometry x="280" y="320" width="80" height="80" as="geometry"/>
                </mxCell>
                <mxCell id="15" value="" style="endArrow=none;html=1;exitX=1;exitY=0.5;exitDx=0;exitDy=0;" edge="1" parent="1" source="14">
                    <mxGeometry width="50" height="50" relative="1" as="geometry">
                        <mxPoint x="400" y="420" as="sourcePoint"/>
                        <mxPoint x="440" y="360" as="targetPoint"/>
                    </mxGeometry>
                </mxCell>
                <mxCell id="16" value="" style="endArrow=none;html=1;entryX=0;entryY=0.5;entryDx=0;entryDy=0;" edge="1" parent="1" target="14">
                    <mxGeometry width="50" height="50" relative="1" as="geometry">
                        <mxPoint x="200" y="360" as="sourcePoint"/>
                        <mxPoint x="220" y="350" as="targetPoint"/>
                    </mxGeometry>
                </mxCell>
                <mxCell id="17" value="" style="endArrow=none;html=1;exitX=0.5;exitY=0;exitDx=0;exitDy=0;" edge="1" parent="1" source="18">
                    <mxGeometry width="50" height="50" relative="1" as="geometry">
                        <mxPoint x="180" y="440" as="sourcePoint"/>
                        <mxPoint x="200" y="360" as="targetPoint"/>
                    </mxGeometry>
                </mxCell>
                <mxCell id="18" value="a == 3" style="rhombus;whiteSpace=wrap;html=1;fillColor=#006666;" vertex="1" parent="1">
                    <mxGeometry x="160" y="400" width="80" height="80" as="geometry"/>
                </mxCell>
                <mxCell id="19" value="" style="endArrow=none;html=1;exitX=1;exitY=0.5;exitDx=0;exitDy=0;" edge="1" parent="1" source="18">
                    <mxGeometry width="50" height="50" relative="1" as="geometry">
                        <mxPoint x="400" y="420" as="sourcePoint"/>
                        <mxPoint x="320" y="440" as="targetPoint"/>
                    </mxGeometry>
                </mxCell>
                <mxCell id="20" value="" style="endArrow=none;html=1;" edge="1" parent="1">
                    <mxGeometry width="50" height="50" relative="1" as="geometry">
                        <mxPoint x="320" y="520" as="sourcePoint"/>
                        <mxPoint x="320" y="440" as="targetPoint"/>
                    </mxGeometry>
                </mxCell>
                <mxCell id="24" value="" style="endArrow=none;html=1;entryX=0;entryY=0.5;entryDx=0;entryDy=0;" edge="1" parent="1" target="18">
                    <mxGeometry width="50" height="50" relative="1" as="geometry">
                        <mxPoint x="80" y="440" as="sourcePoint"/>
                        <mxPoint x="80" y="440" as="targetPoint"/>
                    </mxGeometry>
                </mxCell>
                <mxCell id="25" value="" style="endArrow=none;html=1;exitX=0.5;exitY=0;exitDx=0;exitDy=0;" edge="1" parent="1" source="26">
                    <mxGeometry width="50" height="50" relative="1" as="geometry">
                        <mxPoint x="80" y="520" as="sourcePoint"/>
                        <mxPoint x="80" y="440" as="targetPoint"/>
                    </mxGeometry>
                </mxCell>
                <mxCell id="26" value="a == 4" style="rhombus;whiteSpace=wrap;html=1;fillColor=#999900;" vertex="1" parent="1">
                    <mxGeometry x="40" y="520" width="80" height="80" as="geometry"/>
                </mxCell>
                <mxCell id="28" value="a == 5" style="rhombus;whiteSpace=wrap;html=1;fillColor=#CC0000;" vertex="1" parent="1">
                    <mxGeometry x="-70" y="640" width="80" height="80" as="geometry"/>
                </mxCell>
                <mxCell id="29" value="a == 6" style="rhombus;whiteSpace=wrap;html=1;fillColor=#004C99;" vertex="1" parent="1">
                    <mxGeometry x="-200" y="760" width="80" height="80" as="geometry"/>
                </mxCell>
                <mxCell id="30" value="" style="endArrow=none;html=1;exitX=0.5;exitY=0;exitDx=0;exitDy=0;" edge="1" parent="1" source="28">
                    <mxGeometry width="50" height="50" relative="1" as="geometry">
                        <mxPoint x="140" y="620" as="sourcePoint"/>
                        <mxPoint x="-30" y="560" as="targetPoint"/>
                    </mxGeometry>
                </mxCell>
                <mxCell id="31" value="" style="endArrow=none;html=1;entryX=0;entryY=0.5;entryDx=0;entryDy=0;" edge="1" parent="1" target="26">
                    <mxGeometry width="50" height="50" relative="1" as="geometry">
                        <mxPoint x="-30" y="560" as="sourcePoint"/>
                        <mxPoint x="-5" y="525" as="targetPoint"/>
                    </mxGeometry>
                </mxCell>
                <mxCell id="32" value="" style="endArrow=none;html=1;exitX=1;exitY=0.5;exitDx=0;exitDy=0;" edge="1" parent="1" source="26">
                    <mxGeometry width="50" height="50" relative="1" as="geometry">
                        <mxPoint x="140" y="620" as="sourcePoint"/>
                        <mxPoint x="200" y="560" as="targetPoint"/>
                    </mxGeometry>
                </mxCell>
                <mxCell id="33" value="" style="endArrow=none;html=1;" edge="1" parent="1">
                    <mxGeometry width="50" height="50" relative="1" as="geometry">
                        <mxPoint x="-160" y="680" as="sourcePoint"/>
                        <mxPoint x="-70" y="680" as="targetPoint"/>
                    </mxGeometry>
                </mxCell>
                <mxCell id="34" value="" style="endArrow=none;html=1;exitX=0.5;exitY=0;exitDx=0;exitDy=0;" edge="1" parent="1" source="29">
                    <mxGeometry width="50" height="50" relative="1" as="geometry">
                        <mxPoint x="140" y="620" as="sourcePoint"/>
                        <mxPoint x="-160" y="680" as="targetPoint"/>
                    </mxGeometry>
                </mxCell>
                <mxCell id="35" value="" style="endArrow=none;html=1;exitX=1;exitY=0.5;exitDx=0;exitDy=0;" edge="1" parent="1" source="28">
                    <mxGeometry width="50" height="50" relative="1" as="geometry">
                        <mxPoint x="140" y="620" as="sourcePoint"/>
                        <mxPoint x="100" y="680" as="targetPoint"/>
                    </mxGeometry>
                </mxCell>
                <mxCell id="36" value="" style="endArrow=none;html=1;exitX=1;exitY=0.5;exitDx=0;exitDy=0;" edge="1" parent="1" source="29">
                    <mxGeometry width="50" height="50" relative="1" as="geometry">
                        <mxPoint x="140" y="720" as="sourcePoint"/>
                        <mxPoint y="800" as="targetPoint"/>
                    </mxGeometry>
                </mxCell>
                <mxCell id="37" value="" style="endArrow=none;html=1;exitX=0.5;exitY=0;exitDx=0;exitDy=0;" edge="1" parent="1" source="41">
                    <mxGeometry width="50" height="50" relative="1" as="geometry">
                        <mxPoint y="880" as="sourcePoint"/>
                        <mxPoint y="800" as="targetPoint"/>
                    </mxGeometry>
                </mxCell>
                <mxCell id="38" value="" style="endArrow=none;html=1;exitX=0.5;exitY=0;exitDx=0;exitDy=0;" edge="1" parent="1" source="45">
                    <mxGeometry width="50" height="50" relative="1" as="geometry">
                        <mxPoint x="-280" y="880" as="sourcePoint"/>
                        <mxPoint x="-280" y="800" as="targetPoint"/>
                    </mxGeometry>
                </mxCell>
                <mxCell id="39" value="" style="endArrow=none;html=1;entryX=0;entryY=0.5;entryDx=0;entryDy=0;" edge="1" parent="1" target="29">
                    <mxGeometry width="50" height="50" relative="1" as="geometry">
                        <mxPoint x="-280" y="800" as="sourcePoint"/>
                        <mxPoint x="-230" y="775" as="targetPoint"/>
                    </mxGeometry>
                </mxCell>
                <mxCell id="40" value="&quot;SU OPUESTO ES : 5&quot;" style="shape=document;whiteSpace=wrap;html=1;boundedLbl=1;fillColor=#660033;" vertex="1" parent="1">
                    <mxGeometry x="380" y="410" width="120" height="80" as="geometry"/>
                </mxCell>
                <mxCell id="41" value="&quot;SU OPUESTO ES : 1&quot;" style="shape=document;whiteSpace=wrap;html=1;boundedLbl=1;fillColor=#4C0099;" vertex="1" parent="1">
                    <mxGeometry x="-60" y="880" width="120" height="80" as="geometry"/>
                </mxCell>
                <mxCell id="42" value="&quot;SU OPUESTO ES : 4&quot;" style="shape=document;whiteSpace=wrap;html=1;boundedLbl=1;fillColor=#4D9900;" vertex="1" parent="1">
                    <mxGeometry x="265" y="510" width="120" height="80" as="geometry"/>
                </mxCell>
                <mxCell id="43" value="&quot;SU OPUESTO ES : 3&quot;" style="shape=document;whiteSpace=wrap;html=1;boundedLbl=1;fillColor=#CC6600;" vertex="1" parent="1">
                    <mxGeometry x="140" y="620" width="120" height="80" as="geometry"/>
                </mxCell>
                <mxCell id="44" value="&quot;SU OPUESTO ES : 2&quot;" style="shape=document;whiteSpace=wrap;html=1;boundedLbl=1;fillColor=#990099;" vertex="1" parent="1">
                    <mxGeometry x="40" y="730" width="120" height="80" as="geometry"/>
                </mxCell>
                <mxCell id="45" value="&quot;NO COLOCASTE EL NUMERO DE LA CARA BIEN&quot;" style="shape=document;whiteSpace=wrap;html=1;boundedLbl=1;fillColor=#99004D;" vertex="1" parent="1">
                    <mxGeometry x="-340" y="880" width="120" height="80" as="geometry"/>
                </mxCell>
                <mxCell id="46" value="&quot;SU OPUESTO ES : 6&quot;" style="shape=document;whiteSpace=wrap;html=1;boundedLbl=1;fillColor=#003366;" vertex="1" parent="1">
                    <mxGeometry x="590" y="350" width="120" height="80" as="geometry"/>
                </mxCell>
                <mxCell id="47" value="" style="endArrow=none;html=1;exitX=0.5;exitY=0;exitDx=0;exitDy=0;" edge="1" parent="1" source="43">
                    <mxGeometry width="50" height="50" relative="1" as="geometry">
                        <mxPoint x="250" y="520" as="sourcePoint"/>
                        <mxPoint x="200" y="560" as="targetPoint"/>
                    </mxGeometry>
                </mxCell>
                <mxCell id="48" value="" style="endArrow=none;html=1;exitX=0.5;exitY=0;exitDx=0;exitDy=0;" edge="1" parent="1" source="40">
                    <mxGeometry width="50" height="50" relative="1" as="geometry">
                        <mxPoint x="250" y="520" as="sourcePoint"/>
                        <mxPoint x="440" y="360" as="targetPoint"/>
                    </mxGeometry>
                </mxCell>
                <mxCell id="49" value="" style="endArrow=none;html=1;exitX=0.5;exitY=0;exitDx=0;exitDy=0;" edge="1" parent="1" source="44">
                    <mxGeometry width="50" height="50" relative="1" as="geometry">
                        <mxPoint x="250" y="820" as="sourcePoint"/>
                        <mxPoint x="100" y="680" as="targetPoint"/>
                    </mxGeometry>
                </mxCell>
                <mxCell id="50" value="" style="endArrow=none;html=1;entryX=0.475;entryY=0.92;entryDx=0;entryDy=0;entryPerimeter=0;" edge="1" parent="1" target="41">
                    <mxGeometry width="50" height="50" relative="1" as="geometry">
                        <mxPoint x="-3" y="1080" as="sourcePoint"/>
                        <mxPoint x="25" y="1010" as="targetPoint"/>
                    </mxGeometry>
                </mxCell>
                <mxCell id="51" value="" style="endArrow=none;html=1;entryX=0.515;entryY=0.875;entryDx=0;entryDy=0;entryPerimeter=0;" edge="1" parent="1" target="44">
                    <mxGeometry width="50" height="50" relative="1" as="geometry">
                        <mxPoint x="102" y="1080.7999267578125" as="sourcePoint"/>
                        <mxPoint x="540" y="570" as="targetPoint"/>
                    </mxGeometry>
                </mxCell>
                <mxCell id="52" value="" style="endArrow=none;html=1;entryX=0.515;entryY=0.86;entryDx=0;entryDy=0;entryPerimeter=0;" edge="1" parent="1" target="43">
                    <mxGeometry width="50" height="50" relative="1" as="geometry">
                        <mxPoint x="202" y="1080.7999267578125" as="sourcePoint"/>
                        <mxPoint x="540" y="570" as="targetPoint"/>
                    </mxGeometry>
                </mxCell>
                <mxCell id="53" value="" style="endArrow=none;html=1;entryX=0.473;entryY=0.915;entryDx=0;entryDy=0;entryPerimeter=0;" edge="1" parent="1" target="42">
                    <mxGeometry width="50" height="50" relative="1" as="geometry">
                        <mxPoint x="322" y="1080.800048828125" as="sourcePoint"/>
                        <mxPoint x="540" y="570" as="targetPoint"/>
                    </mxGeometry>
                </mxCell>
                <mxCell id="54" value="" style="endArrow=none;html=1;entryX=0.468;entryY=0.865;entryDx=0;entryDy=0;entryPerimeter=0;" edge="1" parent="1" target="40">
                    <mxGeometry width="50" height="50" relative="1" as="geometry">
                        <mxPoint x="440" y="1081.60009765625" as="sourcePoint"/>
                        <mxPoint x="540" y="570" as="targetPoint"/>
                    </mxGeometry>
                </mxCell>
                <mxCell id="55" value="" style="endArrow=none;html=1;entryX=0.512;entryY=0.905;entryDx=0;entryDy=0;entryPerimeter=0;" edge="1" parent="1" target="46">
                    <mxGeometry width="50" height="50" relative="1" as="geometry">
                        <mxPoint x="651" y="1080" as="sourcePoint"/>
                        <mxPoint x="540" y="570" as="targetPoint"/>
                    </mxGeometry>
                </mxCell>
                <mxCell id="56" value="" style="endArrow=none;html=1;entryX=0.515;entryY=0.89;entryDx=0;entryDy=0;entryPerimeter=0;" edge="1" parent="1" target="45">
                    <mxGeometry width="50" height="50" relative="1" as="geometry">
                        <mxPoint x="-278" y="1080" as="sourcePoint"/>
                        <mxPoint x="-280" y="990" as="targetPoint"/>
                    </mxGeometry>
                </mxCell>
                <mxCell id="57" value="" style="endArrow=none;html=1;" edge="1" parent="1">
                    <mxGeometry width="50" height="50" relative="1" as="geometry">
                        <mxPoint x="-280" y="1080" as="sourcePoint"/>
                        <mxPoint x="650.800048828125" y="1080" as="targetPoint"/>
                    </mxGeometry>
                </mxCell>
                <mxCell id="58" value="" style="endArrow=none;html=1;exitX=0.5;exitY=0;exitDx=0;exitDy=0;" edge="1" parent="1" source="60">
                    <mxGeometry width="50" height="50" relative="1" as="geometry">
                        <mxPoint x="240" y="1210" as="sourcePoint"/>
                        <mxPoint x="240" y="1080" as="targetPoint"/>
                    </mxGeometry>
                </mxCell>
                <mxCell id="60" value="FIN" style="ellipse;whiteSpace=wrap;html=1;fillColor=#CC6600;" vertex="1" parent="1">
                    <mxGeometry x="180" y="1210" width="120" height="80" as="geometry"/>
                </mxCell>
            </root>
        </mxGraphModel>
    </diagram>
</mxfile>